<svg width="20" height="20" viewBox="0 0 20 20" fill="none" xmlns="http://www.w3.org/2000/svg">
  <path d="M10 2C11.1046 2 12 2.89543 12 4C12 5.10457 11.1046 6 10 6C8.89543 6 8 5.10457 8 4C8 2.89543 8.89543 2 10 2Z" fill="currentColor"/>
  <path d="M6 8C5.44772 8 5 8.44772 5 9V15C5 15.5523 5.44772 16 6 16H14C14.5523 16 15 15.5523 15 15V9C15 8.44772 14.5523 8 14 8H6Z" fill="currentColor"/>
  <path d="M3 18C3 17.4477 3.44772 17 4 17H16C16.5523 17 17 17.4477 17 18C17 18.5523 16.5523 19 16 19H4C3.44772 19 3 18.5523 3 18Z" fill="currentColor"/>
  <circle cx="10" cy="11" r="1" fill="#0C021E"/>
</svg>