<svg width="20" height="20" viewBox="0 0 20 20" fill="none" xmlns="http://www.w3.org/2000/svg">
<path d="M7.63685 15.1614C7.61402 15.1879 7.59052 15.2142 7.56842 15.242L7.56332 15.2482C6.98679 15.9855 6.86628 16.962 6.85662 17.6716C6.85028 18.1385 6.8948 18.5866 6.94955 18.9522H5.75061V15.1614H7.63685ZM2.22222 7.64604C2.22222 6.60231 3.07333 5.75061 4.11765 5.75061H10.0041C10.2426 5.74902 14.0513 5.67513 16.5993 2.21099V6.79534L17.4367 6.96589C18.3008 7.1419 18.9522 7.91048 18.9522 8.82251C18.952 9.73482 18.3001 10.5032 17.4367 10.6791L16.5993 10.8497V15.4371C14.0223 11.9486 10.1213 11.8934 9.99898 11.8934H4.11765C3.07305 11.8934 2.22222 11.0426 2.22222 9.99796V7.64604Z" stroke="#A96AFF" stroke-width="2"/>
</svg>
