<svg width="24" height="24" viewBox="0 0 24 24" fill="none" xmlns="http://www.w3.org/2000/svg">
<path fill-rule="evenodd" clip-rule="evenodd" d="M11.9912 16.9403C12.0448 16.9404 12.2524 16.9426 12.5641 16.9968L12.5217 17.6885C12.5076 18.0555 12.197 18.352 11.83 18.352C11.0112 18.352 10.4465 18.592 10.0654 19.072C9.20424 20.1731 9.5007 22.3612 9.68422 23.1235C9.74069 23.3353 9.68422 23.5612 9.55717 23.7306C9.41601 23.9 9.21837 23.9988 9.00661 23.9988H6.35262C5.95735 23.9988 5.64678 23.6882 5.64678 23.293V16.9403H11.9912ZM19.8385 0.390468C19.9839 0.0968308 20.3086 -0.0542127 20.6319 0.0177842C20.951 0.0940184 21.1754 0.377769 21.1754 0.705279V7.12994C22.7847 7.45746 23.9988 8.88328 23.9988 10.5872C23.9988 12.2911 22.7847 13.7184 21.1754 14.0459V20.4691C21.1754 20.7966 20.951 21.0818 20.6319 21.1566C20.5787 21.1689 20.5242 21.1751 20.4696 21.175C20.2056 21.175 19.9599 21.0282 19.8385 20.7853C17.2396 15.5889 12.0517 15.5282 11.9994 15.5282H4.94093C2.9942 15.5282 1.41169 13.9456 1.41169 11.9989V11.2931H0.705852C0.316222 11.2931 0 10.9782 0 10.5872C0 10.1976 0.316222 9.88136 0.70584 9.88136H1.41169V9.17551C1.41169 7.23017 2.9942 5.64624 4.94093 5.64624H11.998C12.2097 5.64483 17.2537 5.55872 19.8385 0.390468Z" fill="#9050E9"/>
</svg>
