<svg width="20" height="24" viewBox="0 0 20 24" fill="none" xmlns="http://www.w3.org/2000/svg">
<path d="M1.91961 0.501961H11.999C12.1263 0.502085 12.2446 0.550803 12.3294 0.632353L18.5686 6.63137C18.6529 6.71238 18.6961 6.81755 18.6961 6.92255V22.151C18.6961 22.8753 18.0796 23.4951 17.2775 23.4951H1.91961C1.1175 23.495 0.501961 22.8752 0.501961 22.151V1.84608L0.508824 1.71176C0.579241 1.0468 1.16752 0.502037 1.91961 0.501961ZM4.79902 15.1882C4.01085 15.1884 3.33725 15.8088 3.33725 16.6137C3.33746 17.4185 4.01097 18.038 4.79902 18.0382H12.4784C13.2667 18.0382 13.94 17.4186 13.9402 16.6137C13.9402 15.8087 13.2668 15.1882 12.4784 15.1882H4.79902ZM4.79902 11.4971C4.01085 11.4973 3.33725 12.1166 3.33725 12.9216C3.3373 13.7265 4.01087 14.3459 4.79902 14.3461H14.398C15.1864 14.3461 15.8598 13.7266 15.8598 12.9216C15.8598 12.1165 15.1864 11.4971 14.398 11.4971H4.79902ZM11.0167 6.46078C11.0167 7.26583 11.6901 7.88527 12.4784 7.88529H18.6167L17.7176 7.02157L11.8667 1.3951L11.0167 0.578431V6.46078Z" stroke="#A96AFF"/>
</svg>
