<svg width="20" height="20" viewBox="0 0 20 20" fill="none" xmlns="http://www.w3.org/2000/svg">
<path d="M8.36499 0.522876V2.7451H11.633V0.522876H12.8084V2.7451H15.5535C16.4867 2.7451 17.2526 3.51034 17.2529 4.44342V7.18852H19.4751V8.36499H17.2529V11.633H19.4751V12.8084H17.2529V15.5535C17.2529 16.4868 16.4868 17.2529 15.5535 17.2529H12.8084V19.4751H11.633V17.2529H8.36499V19.4751H7.18852V17.2529H4.44342C3.51034 17.2526 2.7451 16.4867 2.7451 15.5535V12.8084H0.522876V11.633H2.7451V8.36499H0.522876V7.18852H2.7451V4.44342C2.74536 3.5105 3.5105 2.74536 4.44342 2.7451H7.18852V0.522876H8.36499ZM3.92055 16.0764H16.0764V3.92055H3.92055V16.0764ZM12.8084 7.18852V12.8084H7.18852V7.18852H12.8084ZM8.36499 11.633H11.633V8.36499H8.36499V11.633Z" stroke="#A96AFF"/>
</svg>
