<svg width="54" height="54" viewBox="0 0 54 54" fill="none" xmlns="http://www.w3.org/2000/svg">
<path d="M27 0C12.096 0 0 12.096 0 27C0 41.904 12.096 54 27 54C41.904 54 54 41.904 54 27C54 12.096 41.904 0 27 0ZM27 10.8C32.211 10.8 36.45 15.039 36.45 20.25C36.45 25.461 32.211 29.7 27 29.7C21.789 29.7 17.55 25.461 17.55 20.25C17.55 15.039 21.789 10.8 27 10.8ZM27 48.6C21.519 48.6 15.039 46.386 10.422 40.824C14.985 37.26 20.736 35.1 27 35.1C33.264 35.1 39.015 37.26 43.578 40.824C38.961 46.386 32.481 48.6 27 48.6Z" fill="#9050E9"/>
</svg>
