<svg width="20" height="20" viewBox="0 0 20 20" fill="none" xmlns="http://www.w3.org/2000/svg">
<path d="M13.3317 6.66585H6.66585V13.3317H13.3317V6.66585ZM11.1098 11.1098H8.8878V8.8878H11.1098V11.1098ZM19.9976 8.8878V6.66585H17.7756V4.4439C17.7756 3.22183 16.7757 2.22195 15.5537 2.22195H13.3317V0H11.1098V2.22195H8.8878V0H6.66585V2.22195H4.4439C3.22183 2.22195 2.22195 3.22183 2.22195 4.4439V6.66585H0V8.8878H2.22195V11.1098H0V13.3317H2.22195V15.5537C2.22195 16.7757 3.22183 17.7756 4.4439 17.7756H6.66585V19.9976H8.8878V17.7756H11.1098V19.9976H13.3317V17.7756H15.5537C16.7757 17.7756 17.7756 16.7757 17.7756 15.5537V13.3317H19.9976V11.1098H17.7756V8.8878H19.9976ZM15.5537 15.5537H4.4439V4.4439H15.5537V15.5537Z" fill="#9050E9"/>
</svg>
