<svg width="20" height="24" viewBox="0 0 20 24" fill="none" xmlns="http://www.w3.org/2000/svg">
<path d="M18.9164 6.26969L12.6772 0.270428C12.4967 0.0969112 12.2529 0 11.9985 0H1.91977C0.859095 0 0 0.826053 0 1.84593V22.1511C0 23.171 0.859095 23.9971 1.91977 23.9971H17.2779C18.3386 23.9971 19.1977 23.171 19.1977 22.1511V6.92223C19.1977 6.67764 19.0969 6.44321 18.9164 6.26969ZM12.4785 17.5363H4.79941C4.26956 17.5363 3.83953 17.1228 3.83953 16.6134C3.83953 16.1039 4.26956 15.6904 4.79941 15.6904H12.4785C13.0083 15.6904 13.4384 16.1039 13.4384 16.6134C13.4384 17.1228 13.0083 17.5363 12.4785 17.5363ZM14.3982 13.8445H4.79941C4.26956 13.8445 3.83953 13.431 3.83953 12.9215C3.83953 12.412 4.26956 11.9985 4.79941 11.9985H14.3982C14.9281 11.9985 15.3581 12.412 15.3581 12.9215C15.3581 13.431 14.9281 13.8445 14.3982 13.8445ZM12.4785 7.38371C11.9486 7.38371 11.5186 6.97022 11.5186 6.46075V1.75732L17.37 7.38371H12.4785Z" fill="#9050E9"/>
</svg>
